# xmcd
# 
# Track frame offsets:
#     150
#     21240
#     37201
#     54469
#     69263
# 
# Disc length: 1081
# 
# Revision: 2
# Processed by: cddbd v1.5.2PL0 Copyright (c) Steve Scherf et al.
# Submitted via: fre:ac v1.0.17
# 
DISCID=3f043705
DTITLE=Vintage Trouble - The Bomb Shelter Sessions (Bonus Disc)
DYEAR=2011
DGENRE=Soul
TTITLE0=Love With Me (Live)
TTITLE1=Nancy Lee (Live)
TTITLE2=Come On By
TTITLE3=Total Strangers (Round 2)
TTITLE4=World's Gonna Have To Take A Turn Around
EXTD=
EXTT0=
EXTT1=
EXTT2=
EXTT3=
EXTT4=
PLAYORDER=
